<svg xmlns="http://www.w3.org/2000/svg" version="1.0" width="998.000000pt" height="998.000000pt" viewBox="0 0 998.000000 998.000000" preserveAspectRatio="xMidYMid meet">
<g transform="translate(0.000000,998.000000) scale(0.100000,-0.100000)" fill="#000000" stroke="none">
<path d="M7490 8654 c-170 -10 -460 -13 -1055 -11 -567 1 -1081 -4 -1665 -17 -691 -15 -890 -16 -1090 -7 -255 12 -1027 13 -1590 2 l-325 -6 2 -336 2 -337 -228 -7 -228 -7 -6 -157 c-3 -86 -2 -254 3 -373 16 -386 24 -2195 11 -2493 -7 -169 -10 -646 -9 -1275 2 -553 3 -1237 3 -1520 l0 -515 325 -1 c179 0 757 -4 1285 -8 806 -7 1031 -5 1400 8 870 32 1422 56 1529 67 117 11 236 33 267 49 21 12 26 39 7 42 -7 1 -1056 2 -2330 2 -1274 1 -2319 3 -2321 6 -3 3 -8 601 -11 1330 -4 729 -10 1667 -14 2085 -4 418 -5 1177 -4 1688 l4 927 158 0 158 0 7 -665 c8 -693 3 -1324 -15 -1895 -6 -211 -7 -818 -3 -1637 l6 -1303 226 -2 226 -3 2 -140 c1 -77 3 -143 3 -146 0 -8 1270 -20 2047 -20 528 0 758 6 1530 36 895 34 1093 48 1196 81 61 20 66 50 10 60 -20 4 -587 4 -1260 0 -673 -4 -1707 -4 -2298 0 l-1075 7 0 63 0 63 1068 0 c1109 -1 1243 2 2612 61 303 14 490 38 540 70 12 7 12 12 2 22 -15 15 -227 15 -2745 10 -808 -2 -1470 -2 -1473 0 -14 14 -33 5313 -19 5326 11 11 2867 20 3750 12 556 -5 1103 -10 1218 -10 l207 0 0 -780 c0 -456 4 -821 10 -878 14 -134 41 -292 51 -292 20 0 71 221 88 380 25 238 34 676 25 1220 l-9 545 -215 -2 c-118 -1 -647 -2 -1175 -3 -528 0 -1133 -5 -1345 -10 -1042 -26 -1436 -31 -1595 -20 -88 6 -352 14 -587 17 l-428 6 0 107 0 108 1498 6 c898 4 1545 11 1617 17 119 11 1427 6 2182 -7 l343 -6 -7 -557 c-7 -623 0 -771 48 -1040 11 -61 13 -63 25 -40 18 35 51 168 68 279 26 159 39 483 39 933 l0 427 127 0 128 0 7 -294 c4 -162 4 -312 0 -333 -4 -21 -7 -225 -6 -453 2 -428 14 -629 47 -797 l18 -87 18 44 c83 196 116 792 94 1730 l-8 375 -214 -3 -214 -3 0 151 0 150 -217 -1 c-120 -1 -324 -8 -453 -15z m-187 -191 l677 -6 0 -69 0 -68 -1112 0 c-612 0 -1446 -1 -1853 -3 -520 -1 -820 3 -1010 12 -264 14 -945 10 -1580 -8 l-220 -6 -5 -185 -5 -185 -134 -3 c-101 -2 -136 1 -143 10 -4 7 -8 124 -8 261 l0 247 528 1 c290 1 995 5 1567 9 1044 8 2036 5 3298 -7z m-5100 -890 c4 -120 10 -627 13 -1128 5 -724 4 -950 -7 -1105 -11 -151 -14 -502 -14 -1550 l0 -1355 -131 -3 -131 -3 -7 1228 c-3 675 -11 1608 -17 2073 -5 465 -7 1118 -3 1453 l7 607 142 0 142 0 6 -217z"/>
<path d="M8026 5993 c-3 -27 -10 -352 -15 -723 -6 -371 -15 -810 -20 -975 -13 -368 -14 -1446 -1 -1610 4 -66 12 -162 16 -213 l7 -94 -41 21 c-35 18 -59 21 -162 21 l-120 0 0 348 c0 191 6 577 13 857 6 281 11 605 10 720 -3 220 -41 693 -69 844 -22 123 -54 175 -68 114 -4 -16 -11 -314 -16 -663 -5 -349 -14 -808 -20 -1020 -5 -212 -10 -568 -10 -792 l0 -408 -180 0 c-149 0 -187 -3 -213 -17 l-32 -16 32 -14 c44 -18 198 -42 316 -49 l98 -6 0 -121 c0 -67 2 -144 4 -172 23 -267 27 -326 22 -331 -3 -4 -23 4 -44 17 l-38 24 -395 -3 c-376 -2 -450 -7 -450 -32 0 -11 102 -37 205 -51 150 -22 770 -17 779 6 2 6 14 100 27 208 18 159 26 197 37 192 62 -23 519 -33 692 -14 76 8 104 8 115 -1 24 -20 34 19 55 199 27 239 42 565 39 856 -2 138 0 599 5 1025 l8 775 -31 330 c-17 182 -38 361 -46 399 -14 67 -37 116 -54 116 -19 0 -23 -163 -51 -2325 -11 -833 -9 -972 21 -1239 5 -49 8 -91 5 -93 -2 -2 -24 6 -48 19 -43 23 -45 23 -385 21 l-343 -2 0 105 0 104 128 2 c70 2 157 3 195 2 l67 0 10 35 c16 64 40 305 49 508 6 109 13 509 16 888 3 380 10 796 16 925 6 129 9 314 5 410 -6 163 -44 611 -66 779 -10 75 -41 161 -58 161 -6 0 -13 -21 -16 -47z"/>
</g>
</svg>

