<svg xmlns="http://www.w3.org/2000/svg" version="1.0" width="998.000000pt" height="998.000000pt" viewBox="0 0 998.000000 998.000000" preserveAspectRatio="xMidYMid meet">
<g transform="translate(0.000000,998.000000) scale(0.100000,-0.100000)" fill="#000000" stroke="none">
<path d="M7490 8654 c-170 -10 -460 -13 -1055 -11 -567 1 -1081 -4 -1665 -17 -691 -15 -890 -16 -1090 -7 -255 12 -1027 13 -1590 2 l-325 -6 2 -336 2 -337 -228 -7 -228 -7 -6 -157 c-3 -86 -2 -254 3 -373 16 -386 24 -2195 11 -2493 -7 -169 -10 -646 -9 -1275 2 -553 3 -1237 3 -1520 l0 -515 325 -1 c179 0 757 -4 1285 -8 806 -7 1031 -5 1400 8 870 32 1422 56 1529 67 117 11 236 33 267 49 21 12 26 39 7 42 -7 1 -1056 2 -2330 2 -1274 1 -2319 3 -2321 6 -3 3 -8 601 -11 1330 -4 729 -10 1667 -14 2085 -4 418 -5 1177 -4 1688 l4 927 158 0 158 0 7 -665 c8 -693 3 -1324 -15 -1895 -6 -211 -7 -818 -3 -1637 l6 -1303 226 -2 226 -3 2 -140 c1 -77 3 -143 3 -146 0 -8 1270 -20 2047 -20 528 0 758 6 1530 36 895 34 1093 48 1196 81 61 20 66 50 10 60 -20 4 -587 4 -1260 0 -673 -4 -1707 -4 -2298 0 l-1075 7 0 63 0 63 1068 0 c1109 -1 1243 2 2612 61 303 14 490 38 540 70 12 7 12 12 2 22 -15 15 -227 15 -2745 10 -808 -2 -1470 -2 -1473 0 -14 14 -33 5313 -19 5326 11 11 2867 20 3750 12 556 -5 1103 -10 1218 -10 l207 0 0 -780 c0 -456 4 -821 10 -878 14 -134 41 -292 51 -292 20 0 71 221 88 380 25 238 34 676 25 1220 l-9 545 -215 -2 c-118 -1 -647 -2 -1175 -3 -528 0 -1133 -5 -1345 -10 -1042 -26 -1436 -31 -1595 -20 -88 6 -352 14 -587 17 l-428 6 0 107 0 108 1498 6 c898 4 1545 11 1617 17 119 11 1427 6 2182 -7 l343 -6 -7 -557 c-7 -623 0 -771 48 -1040 11 -61 13 -63 25 -40 18 35 51 168 68 279 26 159 39 483 39 933 l0 427 127 0 128 0 7 -294 c4 -162 4 -312 0 -333 -4 -21 -7 -225 -6 -453 2 -428 14 -629 47 -797 l18 -87 18 44 c83 196 116 792 94 1730 l-8 375 -214 -3 -214 -3 0 151 0 150 -217 -1 c-120 -1 -324 -8 -453 -15z m-187 -191 l677 -6 0 -69 0 -68 -1112 0 c-612 0 -1446 -1 -1853 -3 -520 -1 -820 3 -1010 12 -264 14 -945 10 -1580 -8 l-220 -6 -5 -185 -5 -185 -134 -3 c-101 -2 -136 1 -143 10 -4 7 -8 124 -8 261 l0 247 528 1 c290 1 995 5 1567 9 1044 8 2036 5 3298 -7z m-5100 -890 c4 -120 10 -627 13 -1128 5 -724 4 -950 -7 -1105 -11 -151 -14 -502 -14 -1550 l0 -1355 -131 -3 -131 -3 -7 1228 c-3 675 -11 1608 -17 2073 -5 465 -7 1118 -3 1453 l7 607 142 0 142 0 6 -217z"/>
<path d="M8026 5993 c-3 -27 -10 -352 -15 -723 -6 -371 -15 -810 -20 -975 -13 -368 -14 -1446 -1 -1610 4 -66 12 -162 16 -213 l7 -94 -41 21 c-35 18 -59 21 -162 21 l-120 0 0 348 c0 191 6 577 13 857 6 281 11 605 10 720 -3 220 -41 693 -69 844 -22 123 -54 175 -68 114 -4 -16 -11 -314 -16 -663 -5 -349 -14 -808 -20 -1020 -5 -212 -10 -568 -10 -792 l0 -408 -180 0 c-149 0 -187 -3 -213 -17 l-32 -16 32 -14 c44 -18 198 -42 316 -49 l98 -6 0 -121 c0 -67 2 -144 4 -172 23 -267 27 -326 22 -331 -3 -4 -23 4 -44 17 l-38 24 -395 -3 c-376 -2 -450 -7 -450 -32 0 -11 102 -37 205 -51 150 -22 770 -17 779 6 2 6 14 100 27 208 18 159 26 197 37 192 62 -23 519 -33 692 -14 76 8 104 8 115 -1 24 -20 34 19 55 199 27 239 42 565 39 856 -2 138 0 599 5 1025 l8 775 -31 330 c-17 182 -38 361 -46 399 -14 67 -37 116 -54 116 -19 0 -23 -163 -51 -2325 -11 -833 -9 -972 21 -1239 5 -49 8 -91 5 -93 -2 -2 -24 6 -48 19 -43 23 -45 23 -385 21 l-343 -2 0 105 0 104 128 2 c70 2 157 3 195 2 l67 0 10 35 c16 64 40 305 49 508 6 109 13 509 16 888 3 380 10 796 16 925 6 129 9 314 5 410 -6 163 -44 611 -66 779 -10 75 -41 161 -58 161 -6 0 -13 -21 -16 -47z"/>
<path d="M2670 6000 l0 -30 -71 0 -71 0 -68 -57 -69 -58 0 -91 -1 -92 64 -55 63 -56 74 -3 c71 -3 74 -4 74 -28 0 -20 -7 -27 -32 -35 l-33 -9 0 -68 0 -68 160 0 160 0 0 69 0 69 -36 6 c-31 6 -35 10 -32 34 3 26 5 27 84 32 81 5 81 5 142 58 l62 54 0 88 0 88 -71 61 -70 61 -75 0 -74 0 0 30 0 30 -90 0 -90 0 0 -30z m-2 -238 l3 -43 -48 3 c-44 3 -48 5 -51 31 -5 40 14 59 57 55 35 -3 36 -5 39 -46z m271 34 c7 -8 11 -27 9 -43 -3 -26 -7 -28 -50 -31 l-48 -3 0 39 c0 21 3 42 7 45 12 13 70 7 82 -7z"/>
<path d="M3295 5931 l-70 -58 3 -209 3 -209 66 -52 65 -53 135 0 134 0 64 53 64 52 0 212 1 211 -67 56 -67 56 -131 0 -130 0 -70 -59z m266 -111 c17 -10 19 -22 19 -148 0 -94 -4 -142 -12 -150 -7 -7 -39 -12 -73 -12 -34 0 -66 5 -73 12 -8 8 -12 56 -12 150 0 120 2 138 18 147 22 14 108 14 133 1z"/>
<path d="M3852 5918 l3 -72 33 -8 32 -9 -2 -161 -3 -162 -32 -10 -33 -9 0 -68 0 -69 165 0 166 0 -3 67 c-3 66 -3 67 -35 75 -29 8 -33 13 -33 43 l0 35 106 0 105 0 65 53 64 52 0 101 0 100 -69 57 -70 57 -231 0 -231 0 3 -72z m396 -97 c8 -5 12 -23 10 -47 l-3 -39 -72 -3 -73 -3 0 51 0 50 63 0 c34 0 68 -4 75 -9z"/>
<path d="M4524 5976 c-3 -7 -4 -39 -2 -72 3 -56 4 -58 36 -66 l32 -9 0 -163 0 -163 -32 -9 c-33 -10 -33 -11 -36 -77 l-3 -67 171 0 171 0 -3 67 -3 67 -40 12 -40 11 -2 104 c-3 119 -4 119 70 -8 40 -69 44 -73 78 -73 36 0 38 3 90 90 29 50 57 90 61 90 10 0 10 -181 0 -197 -4 -6 -24 -14 -45 -18 l-37 -7 0 -69 0 -69 165 0 165 0 0 69 0 68 -32 9 -33 10 -3 157 -3 158 36 15 36 15 -3 67 -3 67 -135 3 -135 3 -55 -101 c-63 -114 -53 -116 -126 18 l-45 82 -145 0 c-113 0 -146 -3 -150 -14z"/>
<path d="M5417 5983 c-4 -3 -7 -35 -7 -69 0 -63 0 -63 33 -72 31 -8 32 -10 35 -64 3 -55 3 -56 67 -107 l64 -51 111 0 110 0 0 -43 c0 -24 -5 -48 -12 -55 -7 -7 -40 -12 -79 -12 -66 0 -67 0 -72 29 -7 34 -20 38 -114 33 l-63 -4 1 -56 0 -57 63 -52 63 -53 129 0 129 0 70 60 70 59 5 182 5 183 33 8 33 9 -3 67 -3 67 -147 3 -148 3 0 -70 c0 -60 3 -72 20 -81 14 -8 20 -21 20 -46 l0 -35 -77 3 -78 3 -3 32 c-2 24 2 34 17 43 18 9 21 20 21 80 l0 70 -143 0 c-79 0 -147 -3 -150 -7z"/>
<path d="M6297 5928 l-77 -62 0 -182 0 -181 -32 -9 c-33 -10 -33 -11 -36 -77 l-3 -67 58 0 c56 0 60 2 131 61 l72 61 0 168 c0 192 1 193 77 188 l48 -3 3 -162 2 -162 -35 -7 -35 -6 0 -69 0 -69 165 0 165 0 -2 67 c-3 64 -4 67 -33 76 -36 12 -43 21 -40 50 1 12 3 82 4 155 1 132 1 133 26 142 25 9 26 13 23 77 l-3 68 -201 3 -200 2 -77 -62z"/>
<path d="M6958 5937 l-63 -53 -3 -62 -3 -62 84 0 84 0 9 33 c9 30 12 32 64 35 87 5 102 -2 98 -46 l-3 -36 -117 -18 c-111 -17 -121 -20 -173 -60 l-55 -43 0 -85 0 -85 65 -52 65 -53 94 0 c79 0 97 3 120 21 27 21 46 18 46 -7 0 -11 21 -14 110 -14 l111 0 -3 68 c-3 66 -3 67 -35 77 l-33 9 -2 190 -3 190 -63 53 -62 53 -135 0 -135 0 -62 -53z m270 -374 l-3 -48 -73 -3 c-60 -2 -73 0 -79 14 -11 29 12 48 78 66 35 9 68 16 72 17 4 1 7 -20 5 -46z"/>
<path d="M3023 5103 l-72 -58 -1 -205 0 -205 71 -57 71 -58 132 0 131 0 63 58 c61 57 62 59 62 110 l0 52 -86 0 -85 0 -10 -30 c-11 -29 -13 -30 -78 -30 -39 0 -72 5 -79 12 -8 8 -12 56 -12 150 0 158 0 158 93 158 56 0 72 -9 79 -45 3 -18 11 -20 88 -20 l85 0 3 29 c8 64 -6 92 -71 145 l-62 51 -125 0 -125 0 -72 -57z"/>
<path d="M3547 5153 c-4 -3 -7 -64 -7 -135 l0 -129 68 3 67 3 9 58 8 58 37 -3 36 -3 0 -165 0 -165 -37 -9 -38 -10 0 -68 0 -68 170 0 170 0 0 69 0 69 -37 9 -38 9 0 164 0 165 29 3 c37 5 46 -5 54 -64 l7 -49 65 0 65 0 0 130 0 130 -311 3 c-171 1 -313 -1 -317 -5z"/>
<path d="M4317 5108 l-66 -53 0 -217 -1 -216 57 -51 57 -51 144 0 144 0 64 52 64 51 0 59 0 58 -84 0 -84 0 -7 -30 c-7 -30 -7 -30 -79 -30 -77 0 -96 9 -96 47 0 29 0 29 135 51 99 16 115 22 163 57 l52 39 0 91 -1 90 -65 53 -66 52 -133 0 -132 0 -66 -52z m267 -124 c31 -31 14 -51 -53 -64 -89 -17 -101 -14 -101 19 0 45 23 61 85 61 35 0 59 -5 69 -16z"/>
<path d="M4872 5088 c3 -66 5 -73 25 -76 40 -6 44 -22 41 -183 l-3 -153 -32 -10 -33 -9 0 -68 0 -69 155 0 156 0 -2 66 c-2 58 -5 67 -25 76 -19 9 -24 19 -24 47 0 29 7 41 36 65 40 32 40 32 80 -41 l29 -53 -23 -15 c-19 -14 -22 -25 -22 -81 l0 -64 155 0 156 0 -3 67 c-3 65 -3 66 -36 77 -29 10 -41 27 -95 129 l-62 118 50 44 c28 24 64 47 80 50 69 14 66 11 63 83 l-3 67 -150 0 -150 0 -3 -65 c-3 -56 0 -66 18 -80 21 -16 21 -17 -43 -73 -36 -31 -68 -57 -71 -57 -3 0 -6 27 -6 60 0 49 3 61 20 70 17 9 20 21 20 80 l0 70 -150 0 -151 0 3 -72z"/>
<path d="M5780 5137 c-14 -12 -46 -40 -72 -61 l-48 -38 -2 -181 -3 -181 -32 -9 c-36 -11 -39 -19 -35 -93 l4 -54 52 0 c49 0 58 4 124 58 l72 57 0 167 c0 194 2 198 81 198 l49 0 0 -164 0 -163 -32 -9 c-33 -10 -33 -11 -36 -77 l-3 -67 166 0 165 0 0 70 0 69 -35 7 -35 6 0 163 0 162 25 11 c23 11 25 17 25 82 l0 70 -203 0 c-196 0 -203 -1 -227 -23z"/>
<path d="M6392 5108 l-62 -52 0 -63 0 -63 80 0 80 0 14 35 c15 34 16 35 71 35 72 0 95 -12 95 -50 0 -34 1 -33 -140 -55 -95 -15 -110 -20 -157 -56 l-53 -40 0 -88 0 -89 64 -51 64 -51 92 0 c77 0 96 3 117 20 14 11 29 20 34 20 4 0 11 -9 14 -20 6 -18 15 -20 111 -20 l104 0 0 69 0 68 -32 9 -33 10 -3 190 -2 191 -64 51 -64 52 -133 0 -134 0 -63 -52z m276 -376 c3 -36 0 -42 -20 -47 -13 -4 -49 -5 -79 -3 -52 3 -54 4 -54 32 0 28 4 31 65 47 36 9 70 16 75 15 6 -2 11 -21 13 -44z"/>
</g>
</svg>